<svg width="373" height="250" viewBox="0 0 373 250" fill="none" xmlns="http://www.w3.org/2000/svg">
<path d="M158.699 95.5506L148.763 100.457C142.902 103.351 140.491 110.461 143.378 116.337L160.089 150.359C162.975 156.235 170.066 158.653 175.926 155.759L185.862 150.853C191.722 147.959 194.134 140.849 191.247 134.973L174.536 100.95C171.65 95.0742 164.559 92.6567 158.699 95.5506Z" fill="#FFCB05"/>
<path opacity="0.4" d="M158.698 95.4325L148.762 100.339C142.902 103.233 140.491 110.342 143.377 116.219L160.088 150.241C162.974 156.117 170.065 158.535 175.925 155.641L185.861 150.734C191.722 147.841 194.133 140.731 191.247 134.855L174.535 100.832C171.649 94.956 164.558 92.5385 158.698 95.4325Z" fill="black"/>
<path d="M197.434 209.61C197.32 209.694 197.194 209.761 197.06 209.81L195.919 210.31C195.42 210.53 194.762 210.745 194.004 211.03L192.757 211.4C192.313 211.54 191.829 211.655 191.316 211.765C188.827 212.341 186.275 212.605 183.721 212.55C180.324 212.502 176.961 211.86 173.783 210.655C171.942 209.951 170.178 209.062 168.517 208C166.736 206.799 165.108 205.383 163.67 203.785C160.471 200.248 158.271 195.919 157.297 191.245C156.773 188.72 156.658 186.127 156.958 183.565C157.279 180.885 158.102 178.29 159.381 175.915C160.708 173.467 162.447 171.268 164.522 169.415C166.656 167.492 169.131 165.988 171.818 164.98C174.528 163.986 177.417 163.579 180.295 163.785C181.71 163.892 183.1 164.212 184.419 164.735C185.741 165.255 186.926 166.071 187.885 167.12C188.835 168.16 189.489 169.436 189.78 170.815C190.071 172.189 189.887 173.621 189.256 174.875C188.957 175.487 188.567 176.05 188.099 176.545C187.653 177.035 187.151 177.471 186.603 177.845C185.539 178.575 184.37 179.139 183.138 179.52C178.808 180.672 174.223 180.391 170.066 178.717C165.909 177.044 162.403 174.069 160.069 170.235C159.152 168.676 158.465 166.992 158.03 165.235C156.985 161.167 157.175 156.879 158.573 152.92C159.119 151.397 159.851 149.948 160.753 148.605C161.072 148.15 161.341 147.825 161.516 147.605C161.596 147.486 161.689 147.377 161.795 147.28C161.737 147.412 161.663 147.536 161.575 147.65C161.426 147.89 161.176 148.23 160.882 148.69C158.709 152.22 157.632 156.319 157.79 160.465C157.843 162.037 158.075 163.597 158.484 165.115C158.921 166.817 159.605 168.446 160.513 169.95C162.631 173.401 165.751 176.119 169.454 177.74C171.495 178.663 173.673 179.241 175.902 179.45C178.249 179.673 180.617 179.452 182.883 178.8C184.043 178.438 185.141 177.902 186.14 177.21C186.644 176.866 187.106 176.463 187.516 176.01C187.935 175.566 188.283 175.06 188.548 174.51C189.101 173.403 189.261 172.14 189.002 170.93C188.731 169.685 188.135 168.534 187.277 167.595C186.393 166.636 185.303 165.89 184.09 165.415C182.851 164.918 181.545 164.61 180.216 164.5C177.455 164.311 174.686 164.706 172.087 165.66C166.945 167.638 162.681 171.399 160.069 176.26C158.826 178.547 158.026 181.049 157.711 183.635C157.413 186.117 157.515 188.631 158.015 191.08C158.946 195.639 161.068 199.868 164.163 203.335C165.557 204.903 167.136 206.295 168.866 207.48C170.481 208.545 172.201 209.443 173.997 210.16C175.641 210.79 177.336 211.279 179.064 211.62C183.101 212.366 187.245 212.322 191.266 211.49C191.765 211.39 192.263 211.29 192.702 211.16L193.949 210.825C194.707 210.57 195.36 210.375 195.874 210.185L197.041 209.74C197.167 209.684 197.299 209.641 197.434 209.61Z" fill="#263238"/>
<path d="M166.108 138.5C166.108 138.54 165.53 138.77 164.612 139.235C162.222 140.445 160.114 142.149 158.429 144.235C157.78 145.03 157.431 145.565 157.391 145.545C157.44 145.4 157.511 145.263 157.601 145.14C157.809 144.794 158.037 144.46 158.284 144.14C159.92 141.953 162.077 140.212 164.557 139.075C164.928 138.9 165.31 138.748 165.699 138.62C165.828 138.559 165.966 138.519 166.108 138.5Z" fill="#263238"/>
<path d="M161.635 145.235C161.635 145.235 161.71 145.065 161.969 144.88C162.346 144.619 162.81 144.516 163.261 144.595C163.596 144.665 163.905 144.824 164.156 145.057C164.408 145.289 164.591 145.586 164.687 145.915C164.795 146.325 164.771 146.76 164.617 147.155C164.462 147.551 164.187 147.887 163.829 148.115C163.459 148.361 163.011 148.459 162.573 148.39C162.173 148.332 161.798 148.158 161.495 147.89C161.233 147.667 161.041 147.373 160.942 147.043C160.843 146.713 160.841 146.361 160.937 146.03C161.051 145.59 161.313 145.203 161.68 144.935C161.807 144.83 161.961 144.762 162.124 144.74C162.124 144.74 161.969 144.825 161.745 145.015C161.427 145.291 161.206 145.663 161.116 146.075C161.045 146.37 161.057 146.68 161.151 146.969C161.246 147.257 161.418 147.514 161.65 147.71C161.923 147.959 162.268 148.112 162.634 148.148C163.001 148.184 163.369 148.101 163.685 147.91C163.994 147.71 164.234 147.42 164.373 147.078C164.511 146.736 164.541 146.359 164.458 146C164.392 145.752 164.271 145.523 164.102 145.331C163.934 145.139 163.723 144.988 163.487 144.891C163.25 144.794 162.995 144.754 162.74 144.772C162.485 144.791 162.239 144.869 162.019 145C161.765 145.115 161.655 145.25 161.635 145.235Z" fill="#263238"/>
<path d="M158.699 95.5506L148.763 100.457C142.902 103.351 140.491 110.461 143.378 116.337L160.089 150.359C162.975 156.235 170.066 158.653 175.926 155.759L185.862 150.853C191.722 147.959 194.134 140.849 191.247 134.973L174.536 100.95C171.65 95.0742 164.559 92.6567 158.699 95.5506Z" fill="#FFCB05"/>
<path opacity="0.4" d="M158.698 95.4325L148.762 100.339C142.902 103.233 140.491 110.342 143.377 116.219L160.088 150.241C162.974 156.117 170.065 158.535 175.925 155.641L185.861 150.734C191.722 147.841 194.133 140.731 191.247 134.855L174.535 100.832C171.649 94.956 164.558 92.5385 158.698 95.4325Z" fill="black"/>
<path d="M197.434 209.61C197.32 209.694 197.194 209.761 197.06 209.81L195.919 210.31C195.42 210.53 194.762 210.745 194.004 211.03L192.757 211.4C192.313 211.54 191.829 211.655 191.316 211.765C188.827 212.341 186.275 212.605 183.721 212.55C180.324 212.502 176.961 211.86 173.783 210.655C171.942 209.951 170.178 209.062 168.517 208C166.736 206.799 165.108 205.383 163.67 203.785C160.471 200.248 158.271 195.919 157.297 191.245C156.773 188.72 156.658 186.127 156.958 183.565C157.279 180.885 158.102 178.29 159.381 175.915C160.708 173.467 162.447 171.268 164.522 169.415C166.656 167.492 169.131 165.988 171.818 164.98C174.528 163.986 177.417 163.579 180.295 163.785C181.71 163.892 183.1 164.212 184.419 164.735C185.741 165.255 186.926 166.071 187.885 167.12C188.835 168.16 189.489 169.436 189.78 170.815C190.071 172.189 189.887 173.621 189.256 174.875C188.957 175.487 188.567 176.05 188.099 176.545C187.653 177.035 187.151 177.471 186.603 177.845C185.539 178.575 184.37 179.139 183.138 179.52C178.808 180.672 174.223 180.391 170.066 178.717C165.909 177.044 162.403 174.069 160.069 170.235C159.152 168.676 158.465 166.992 158.03 165.235C156.985 161.167 157.175 156.879 158.573 152.92C159.119 151.397 159.851 149.948 160.753 148.605C161.072 148.15 161.341 147.825 161.516 147.605C161.596 147.486 161.689 147.377 161.795 147.28C161.737 147.412 161.663 147.536 161.575 147.65C161.426 147.89 161.176 148.23 160.882 148.69C158.709 152.22 157.632 156.319 157.79 160.465C157.843 162.037 158.075 163.597 158.484 165.115C158.921 166.817 159.605 168.446 160.513 169.95C162.631 173.401 165.751 176.119 169.454 177.74C171.495 178.663 173.673 179.241 175.902 179.45C178.249 179.673 180.617 179.452 182.883 178.8C184.043 178.438 185.141 177.902 186.14 177.21C186.644 176.866 187.106 176.463 187.516 176.01C187.935 175.566 188.283 175.06 188.548 174.51C189.101 173.403 189.261 172.14 189.002 170.93C188.731 169.685 188.135 168.534 187.277 167.595C186.393 166.636 185.303 165.89 184.09 165.415C182.851 164.918 181.545 164.61 180.216 164.5C177.455 164.311 174.686 164.706 172.087 165.66C166.945 167.638 162.681 171.399 160.069 176.26C158.826 178.547 158.026 181.049 157.711 183.635C157.413 186.117 157.515 188.631 158.015 191.08C158.946 195.639 161.068 199.868 164.163 203.335C165.557 204.903 167.136 206.295 168.866 207.48C170.481 208.545 172.201 209.443 173.997 210.16C175.641 210.79 177.336 211.279 179.064 211.62C183.101 212.366 187.245 212.322 191.266 211.49C191.765 211.39 192.263 211.29 192.702 211.16L193.949 210.825C194.707 210.57 195.36 210.375 195.874 210.185L197.041 209.74C197.167 209.684 197.299 209.641 197.434 209.61Z" fill="#263238"/>
<path d="M166.108 138.5C166.108 138.54 165.53 138.77 164.612 139.235C162.222 140.445 160.114 142.149 158.429 144.235C157.78 145.03 157.431 145.565 157.391 145.545C157.44 145.4 157.511 145.263 157.601 145.14C157.809 144.794 158.037 144.46 158.284 144.14C159.92 141.953 162.077 140.212 164.557 139.075C164.928 138.9 165.31 138.748 165.699 138.62C165.828 138.559 165.966 138.519 166.108 138.5Z" fill="#263238"/>
<path d="M161.635 145.235C161.635 145.235 161.71 145.065 161.969 144.88C162.346 144.619 162.81 144.516 163.261 144.595C163.596 144.665 163.905 144.824 164.156 145.057C164.408 145.289 164.591 145.586 164.687 145.915C164.795 146.325 164.771 146.76 164.617 147.155C164.462 147.551 164.187 147.887 163.829 148.115C163.459 148.361 163.011 148.459 162.573 148.39C162.173 148.332 161.798 148.158 161.495 147.89C161.233 147.667 161.041 147.373 160.942 147.043C160.843 146.713 160.841 146.361 160.937 146.03C161.051 145.59 161.313 145.203 161.68 144.935C161.807 144.83 161.961 144.762 162.124 144.74C162.124 144.74 161.969 144.825 161.745 145.015C161.427 145.291 161.206 145.663 161.116 146.075C161.045 146.37 161.057 146.68 161.151 146.969C161.246 147.257 161.418 147.514 161.65 147.71C161.923 147.959 162.268 148.112 162.634 148.148C163.001 148.184 163.369 148.101 163.685 147.91C163.994 147.71 164.234 147.42 164.373 147.078C164.511 146.736 164.541 146.359 164.458 146C164.392 145.752 164.271 145.523 164.102 145.331C163.934 145.139 163.723 144.988 163.487 144.891C163.25 144.794 162.995 144.754 162.74 144.772C162.485 144.791 162.239 144.869 162.019 145C161.765 145.115 161.655 145.25 161.635 145.235Z" fill="#263238"/>
<path d="M167.051 97.555C166.088 95.64 165.24 93.92 165.24 93.92C165.24 93.92 168.831 91.71 167.27 87.84C165.709 83.97 161.351 75.405 161.351 75.405L152.873 75.325L148.036 84.71L157.077 102.615C157.74 103.915 158.883 104.903 160.263 105.37C161.642 105.837 163.149 105.746 164.462 105.115C165.132 104.794 165.732 104.343 166.225 103.788C166.719 103.232 167.098 102.583 167.339 101.88C167.58 101.176 167.678 100.431 167.629 99.6882C167.579 98.9457 167.383 98.2205 167.051 97.555Z" fill="#FFBE9D"/>
<path d="M163.53 82.115C163.575 82.2095 163.59 82.3152 163.575 82.4188C163.56 82.5223 163.515 82.619 163.445 82.6967C163.375 82.7745 163.284 82.8297 163.183 82.8556C163.082 82.8814 162.975 82.8766 162.877 82.8419C162.778 82.8071 162.692 82.744 162.63 82.6603C162.567 82.5766 162.53 82.4763 162.525 82.3718C162.519 82.2673 162.544 82.1635 162.597 82.0733C162.65 81.9831 162.728 81.9106 162.822 81.865C162.885 81.8345 162.953 81.8168 163.023 81.8128C163.092 81.8089 163.162 81.8188 163.228 81.8421C163.294 81.8653 163.354 81.9014 163.406 81.9482C163.458 81.9951 163.5 82.0518 163.53 82.115Z" fill="#263238"/>
<path d="M163.75 81.37C163.715 81.46 163.216 81.33 162.687 81.545C162.159 81.76 161.885 82.2 161.8 82.16C161.715 82.12 161.77 81.995 161.885 81.795C162.041 81.5362 162.277 81.3359 162.558 81.225C162.836 81.1114 163.144 81.0904 163.435 81.165C163.655 81.23 163.764 81.325 163.75 81.37Z" fill="#263238"/>
<path d="M157.97 84.78C158.024 84.9069 158.027 85.0498 157.978 85.1788C157.929 85.3079 157.833 85.413 157.708 85.4724C157.584 85.5317 157.442 85.5407 157.311 85.4974C157.181 85.4541 157.072 85.3619 157.007 85.24C156.974 85.1762 156.953 85.1063 156.947 85.0344C156.941 84.9624 156.95 84.89 156.972 84.8215C156.995 84.753 157.031 84.6897 157.079 84.6356C157.126 84.5815 157.184 84.5376 157.249 84.5065C157.314 84.4754 157.385 84.4579 157.457 84.4549C157.529 84.4519 157.6 84.4635 157.668 84.4891C157.735 84.5146 157.797 84.5536 157.848 84.6036C157.9 84.6536 157.942 84.7136 157.97 84.78Z" fill="#263238"/>
<path d="M158.015 84.11C157.985 84.205 157.486 84.07 156.958 84.29C156.429 84.51 156.155 84.945 156.07 84.9C155.985 84.855 156.04 84.735 156.155 84.54C156.311 84.2797 156.547 84.0778 156.828 83.965C157.107 83.8523 157.415 83.833 157.706 83.91C157.925 83.97 158.035 84.07 158.015 84.11Z" fill="#263238"/>
<path d="M161.964 87.595C162.21 87.3976 162.478 87.2298 162.762 87.095C162.887 87.025 163.011 86.945 162.992 86.835C162.941 86.682 162.845 86.5479 162.717 86.45L161.855 85.545C161.246 84.9 160.703 84.305 160.319 83.865C160.093 83.6437 159.895 83.3951 159.73 83.125C159.989 83.3056 160.225 83.5171 160.433 83.755C160.852 84.165 161.431 84.755 162.019 85.385L162.872 86.305C163.029 86.4309 163.139 86.6075 163.181 86.805C163.185 86.8603 163.175 86.9156 163.152 86.9661C163.129 87.0167 163.095 87.0609 163.051 87.095C162.987 87.1487 162.914 87.1926 162.837 87.225C162.562 87.3841 162.269 87.5084 161.964 87.595Z" fill="#263238"/>
<path d="M160.493 88.905C161.475 89.0487 162.477 88.9332 163.4 88.57C163.337 88.926 163.154 89.2495 162.882 89.4869C162.61 89.7243 162.265 89.8612 161.904 89.875C160.593 89.94 160.493 88.905 160.493 88.905Z" fill="white"/>
<path d="M165.226 93.89C163.406 94.6672 161.403 94.9083 159.451 94.585C159.451 94.585 161.984 96.785 165.669 94.83L165.226 93.89Z" fill="#EB996E"/>
<path d="M143.942 90.5L144.012 90.46C143.752 89.7467 143.527 89.0208 143.339 88.285C141.648 79.465 147.827 74.71 149.188 74.06C150.649 73.36 152.819 71.335 158.379 73.43C159.229 73.742 160.029 74.1783 160.752 74.725C162.055 75.3628 163.19 76.2998 164.064 77.46C164.836 78.495 165.086 79.265 165.061 79.285C165.036 79.305 164.642 78.61 163.829 77.665C163.357 77.1067 162.823 76.6036 162.238 76.165C163.25 77.4536 163.834 79.027 163.909 80.665L163.011 80.385L156.848 81.59C156.579 79.9 155.058 78.365 154.29 77.68H154.24C155.826 83.835 149.916 87.38 149.916 87.38L154.728 97.985C146.66 99.895 143.942 90.5 143.942 90.5Z" fill="#263238"/>
<path d="M152.29 93.44C152.072 93.7758 151.745 94.0259 151.364 94.148C150.984 94.2701 150.573 94.2566 150.201 94.11C149.835 93.9488 149.512 93.7038 149.259 93.3946C149.005 93.0854 148.827 92.7207 148.74 92.33C148.595 91.8636 148.633 91.3598 148.844 90.92C149.054 90.669 149.322 90.4735 149.624 90.3506C149.927 90.2277 150.255 90.1811 150.58 90.215L152.29 93.44Z" fill="#FFBE9D"/>
<path d="M151.138 93.21C151.138 93.155 150.919 93.21 150.64 93.16C150.452 93.1279 150.276 93.0468 150.13 92.9248C149.984 92.8029 149.872 92.6444 149.806 92.4655C149.741 92.2865 149.723 92.0933 149.756 91.9054C149.788 91.7174 149.869 91.5414 149.991 91.395C150.186 91.155 150.38 91.065 150.36 91.015C150.34 90.965 150.106 90.97 149.812 91.215C149.625 91.3837 149.494 91.6045 149.433 91.849C149.373 92.0935 149.388 92.3505 149.475 92.5867C149.562 92.8229 149.717 93.0276 149.921 93.1744C150.125 93.3211 150.369 93.4032 150.62 93.41C150.974 93.405 151.163 93.245 151.138 93.21Z" fill="#EB996E"/>
<path d="M173.478 79.695C173.478 79.695 173.453 79.6 173.418 79.41C173.384 79.22 173.329 78.91 173.264 78.56C173.229 78.37 173.194 78.165 173.149 77.935C173.104 77.705 173.02 77.435 172.95 77.195C172.797 76.5761 172.599 75.9694 172.356 75.38C171.74 73.7439 170.879 72.2113 169.803 70.835C168.242 68.8101 166.272 67.1394 164.021 65.9329C161.77 64.7264 159.289 64.0114 156.743 63.835C155.981 63.7801 155.216 63.7801 154.454 63.835C154.065 63.865 153.676 63.875 153.282 63.925L152.11 64.125C151.911 64.165 151.712 64.185 151.517 64.235L150.934 64.4C150.54 64.51 150.146 64.605 149.752 64.735C148.965 65.0189 148.197 65.3529 147.453 65.735C146.69 66.1212 145.952 66.5554 145.244 67.035C144.895 67.285 144.561 67.57 144.212 67.835C143.857 68.0987 143.524 68.3896 143.214 68.705C141.878 69.9264 140.753 71.3607 139.883 72.95L139.539 73.55L139.245 74.18L138.956 74.815C138.854 75.0252 138.767 75.2424 138.696 75.465C138.542 75.905 138.392 76.35 138.238 76.8C138.083 77.25 138.018 77.72 137.908 78.18C137.11 81.9888 137.574 85.9547 139.23 89.475C139.444 89.9 139.659 90.32 139.868 90.745C140.078 91.17 140.367 91.54 140.621 91.935C140.743 92.134 140.878 92.3245 141.025 92.505L141.454 93.055L141.883 93.605L142.357 94.105C142.98 94.7718 143.646 95.3965 144.351 95.975C145.059 96.5253 145.804 97.0265 146.58 97.475C146.952 97.7083 147.34 97.9139 147.742 98.09C148.141 98.27 148.53 98.465 148.934 98.625C149.732 98.931 150.55 99.1833 151.382 99.38C152.194 99.5709 153.017 99.7112 153.846 99.8C154.255 99.835 154.664 99.835 155.068 99.855H155.676C155.875 99.855 156.075 99.855 156.279 99.825L157.466 99.745C157.86 99.705 158.244 99.625 158.628 99.565C159.381 99.4415 160.124 99.2644 160.852 99.035C163.528 98.2071 165.971 96.7579 167.983 94.805C169.65 93.2035 170.994 91.2955 171.942 89.185C172.666 87.5995 173.149 85.9141 173.374 84.185C173.471 83.5562 173.522 82.9212 173.528 82.285C173.528 82.005 173.558 81.75 173.558 81.515L173.523 80.885C173.523 80.51 173.488 80.225 173.478 80.02C173.468 79.815 173.478 79.725 173.478 79.725C173.495 79.8226 173.507 79.9211 173.513 80.02C173.513 80.22 173.553 80.52 173.583 80.88C173.583 81.07 173.613 81.285 173.633 81.515C173.653 81.745 173.633 82.015 173.633 82.285C173.635 82.9258 173.59 83.5658 173.498 84.2C173.294 85.9489 172.821 87.6557 172.097 89.26C171.052 91.625 169.516 93.7398 167.593 95.464C165.67 97.1882 163.402 98.4822 160.942 99.26C160.203 99.4904 159.45 99.6708 158.688 99.8C158.299 99.86 157.915 99.945 157.516 99.985L156.314 100.07C156.11 100.07 155.905 100.105 155.701 100.1H155.088C154.679 100.1 154.265 100.1 153.846 100.05C153.007 99.9619 152.174 99.82 151.353 99.625C150.504 99.4334 149.671 99.1811 148.859 98.87C148.45 98.705 148.056 98.51 147.652 98.33C147.244 98.1496 146.849 97.9408 146.471 97.705C145.684 97.258 144.929 96.7568 144.212 96.205C143.494 95.6226 142.818 94.9911 142.187 94.315L141.688 93.815L141.255 93.26L140.821 92.705C140.67 92.5223 140.533 92.3284 140.412 92.125L139.644 90.915L138.996 89.63C137.314 86.0606 136.843 82.0378 137.654 78.175C137.769 77.705 137.879 77.235 137.993 76.77L138.457 75.42C138.526 75.1929 138.615 74.9722 138.721 74.76L139.015 74.115L139.31 73.475L139.664 72.87C140.544 71.2579 141.687 69.8045 143.045 68.57C143.356 68.2516 143.689 67.9558 144.042 67.685C144.396 67.42 144.735 67.135 145.094 66.88C146.51 65.9168 148.046 65.1436 149.662 64.58C150.061 64.445 150.465 64.35 150.859 64.24L151.452 64.075C151.647 64.025 151.851 64.005 152.051 63.965L153.242 63.77C153.636 63.715 154.035 63.71 154.424 63.675C155.196 63.6225 155.971 63.6225 156.743 63.675C159.316 63.8596 161.82 64.5913 164.089 65.8216C166.358 67.0518 168.34 68.7523 169.903 70.81C170.978 72.2035 171.833 73.7551 172.436 75.41C172.671 76.0055 172.862 76.617 173.01 77.24C173.079 77.51 173.154 77.74 173.199 77.985C173.244 78.23 173.269 78.425 173.299 78.615C173.354 78.985 173.399 79.265 173.428 79.47C173.458 79.675 173.478 79.695 173.478 79.695Z" fill="#263238"/>
<path d="M144.785 78.735C145.131 78.5493 145.429 78.2842 145.654 77.9614C145.878 77.6386 146.024 77.2672 146.078 76.8773C146.133 76.4874 146.094 76.0902 145.967 75.7179C145.839 75.3457 145.626 75.0089 145.344 74.735C144.311 73.735 142.531 73.82 141.354 74.685C140.24 75.6247 139.54 76.9665 139.405 78.42C139.255 79.245 139.324 80.095 139.604 80.885C139.746 81.2783 139.985 81.6295 140.298 81.9064C140.61 82.1833 140.987 82.3771 141.394 82.47C141.856 82.5166 142.322 82.4425 142.747 82.255C143.171 82.0675 143.54 81.7729 143.818 81.4C144.367 80.645 144.779 79.7986 145.034 78.9" fill="#263238"/>
<path d="M165.754 71.79C165.719 71.83 165.066 71.185 163.864 70.34C163.159 69.8494 162.421 69.4083 161.655 69.02C160.715 68.5529 159.74 68.1617 158.738 67.85C157.731 67.5521 156.702 67.3332 155.661 67.195C154.809 67.0899 153.951 67.0464 153.093 67.065C151.627 67.095 150.729 67.265 150.719 67.215C150.922 67.1426 151.133 67.094 151.348 67.07C151.595 67.0194 151.844 66.9827 152.096 66.96C152.385 66.93 152.719 66.885 153.093 66.88C153.961 66.8374 154.832 66.8642 155.696 66.96C156.753 67.0833 157.797 67.2974 158.818 67.6C159.835 67.9164 160.823 68.3213 161.77 68.81C162.54 69.2127 163.279 69.6741 163.979 70.19C164.283 70.405 164.532 70.63 164.757 70.815C164.981 71 165.171 71.175 165.32 71.315C165.483 71.4559 165.628 71.6153 165.754 71.79Z" fill="#455A64"/>
<path d="M167.36 74.5C167.285 74.5 167.14 74.105 166.861 73.66C166.582 73.215 166.283 72.895 166.333 72.835C166.383 72.775 166.776 73.03 167.081 73.52C167.385 74.01 167.43 74.5 167.36 74.5Z" fill="#455A64"/>
<path d="M139.978 78.46C140.018 79.0495 139.908 79.6395 139.659 80.175C139.427 80.7472 139.272 81.3472 139.195 81.96C139.165 82.3123 139.218 82.6669 139.35 82.995C139.485 83.3386 139.743 83.62 140.073 83.785C140.414 83.928 140.795 83.9422 141.145 83.825C141.485 83.7193 141.801 83.5496 142.077 83.325C142.545 82.9293 142.925 82.4407 143.194 81.89C143.425 81.367 143.593 80.818 143.693 80.255C143.722 80.4103 143.722 80.5697 143.693 80.725C143.643 81.1537 143.527 81.572 143.349 81.965C143.09 82.5575 142.704 83.0851 142.217 83.51C141.924 83.76 141.585 83.9502 141.22 84.07C140.809 84.2081 140.362 84.1903 139.963 84.02C139.572 83.8327 139.268 83.5013 139.115 83.095C138.971 82.73 138.916 82.3356 138.956 81.945C139.043 81.3111 139.221 80.6931 139.484 80.11C139.649 79.7233 139.78 79.3236 139.878 78.915C139.903 78.7616 139.936 78.6097 139.978 78.46Z" fill="#263238"/>
<path d="M148.301 106.845C148.301 106.845 170.242 147.225 173.887 151.71L203.523 138.5L185.571 107.59C183.955 104.777 181.676 102.403 178.935 100.676C176.193 98.9488 173.072 97.9202 169.843 97.68H169.634C162.588 97.22 147.239 104.875 148.301 106.845Z" fill="#FFCB05"/>
<path d="M194.542 123.035L194.442 123.09L194.138 123.235L192.951 123.77L188.493 125.735L181.716 128.69L177.622 130.465L176.54 130.935C176.337 131.017 176.119 131.053 175.9 131.039C175.682 131.025 175.47 130.962 175.279 130.855C174.906 130.641 174.583 130.349 174.331 130C174.075 129.657 173.857 129.286 173.683 128.895C172.386 126.77 171.06 124.46 169.778 122.035C168.781 120.125 167.834 118.235 166.966 116.385C166.537 115.465 166.125 114.555 165.729 113.655C165.32 112.771 165.054 111.828 164.941 110.86C164.855 109.916 165.106 108.971 165.649 108.195C166.172 107.496 166.803 106.887 167.519 106.39C170.592 104.148 174.165 102.692 177.927 102.15C178.709 102.04 179.323 101.99 179.737 101.97H180.235C180.29 101.964 180.345 101.964 180.4 101.97H180.24L179.767 102.01C179.353 102.045 178.744 102.11 177.966 102.235C175.77 102.589 173.633 103.248 171.618 104.195C170.229 104.848 168.908 105.637 167.674 106.55C166.981 107.037 166.368 107.631 165.859 108.31C165.354 109.04 165.122 109.925 165.206 110.81C165.32 111.751 165.583 112.667 165.984 113.525C166.372 114.42 166.791 115.33 167.225 116.25C168.088 118.09 169.025 119.975 170.033 121.885C171.314 124.305 172.631 126.61 173.922 128.73C174.224 129.481 174.745 130.123 175.418 130.57C175.578 130.663 175.757 130.717 175.942 130.728C176.126 130.739 176.31 130.707 176.48 130.635L177.568 130.17L181.662 128.415L188.458 125.515L192.946 123.62L194.153 123.12L194.462 123C194.507 123.04 194.542 123.03 194.542 123.035Z" fill="#263238"/>
<g opacity="0.7">
<path opacity="0.7" d="M172.596 111.89C172.596 112.164 172.515 112.432 172.363 112.659C172.211 112.887 171.996 113.065 171.743 113.17C171.491 113.274 171.213 113.302 170.945 113.248C170.677 113.195 170.431 113.063 170.238 112.869C170.045 112.676 169.913 112.429 169.86 112.16C169.806 111.892 169.834 111.613 169.938 111.36C170.043 111.107 170.22 110.891 170.447 110.738C170.674 110.586 170.941 110.505 171.215 110.505C171.581 110.505 171.932 110.651 172.191 110.911C172.45 111.17 172.596 111.523 172.596 111.89Z" fill="white"/>
</g>
<g opacity="0.7">
<path opacity="0.7" d="M175.358 117.835C175.358 118.109 175.277 118.377 175.126 118.604C174.974 118.832 174.758 119.01 174.506 119.115C174.253 119.219 173.975 119.247 173.708 119.193C173.44 119.14 173.193 119.008 173 118.814C172.807 118.621 172.676 118.374 172.622 118.105C172.569 117.837 172.596 117.558 172.701 117.305C172.805 117.052 172.982 116.836 173.21 116.683C173.437 116.531 173.704 116.45 173.977 116.45C174.343 116.45 174.695 116.596 174.954 116.856C175.213 117.115 175.358 117.468 175.358 117.835Z" fill="white"/>
</g>
<g opacity="0.7">
<path opacity="0.7" d="M177.293 125.005C178.056 125.005 178.674 124.385 178.674 123.62C178.674 122.855 178.056 122.235 177.293 122.235C176.53 122.235 175.912 122.855 175.912 123.62C175.912 124.385 176.53 125.005 177.293 125.005Z" fill="white"/>
</g>
<path d="M181.412 107.17C181.103 107.402 180.768 107.598 180.415 107.755C179.787 108.085 178.919 108.52 177.921 108.965C176.924 109.41 176.032 109.79 175.373 110.045C175.026 110.211 174.659 110.332 174.281 110.405C174.601 110.191 174.944 110.013 175.304 109.875L177.797 108.73L180.29 107.59C180.647 107.407 181.023 107.266 181.412 107.17Z" fill="#263238"/>
<path d="M185.003 113C184.643 113.219 184.262 113.4 183.866 113.54L181.083 114.725L178.306 115.935C177.933 116.127 177.542 116.281 177.139 116.395C177.478 116.146 177.845 115.937 178.231 115.77C178.924 115.415 179.891 114.955 180.978 114.485C182.065 114.015 183.068 113.63 183.801 113.365C184.188 113.202 184.59 113.08 185.003 113Z" fill="#263238"/>
<path d="M187.227 119.525C186.205 120.122 185.14 120.64 184.04 121.075C182.976 121.593 181.876 122.032 180.749 122.39C181.771 121.793 182.836 121.275 183.936 120.84C185 120.323 186.1 119.884 187.227 119.525Z" fill="#263238"/>
<path d="M154.918 102.13C154.811 101.728 154.83 101.303 154.972 100.912C155.113 100.522 155.372 100.184 155.711 99.945C156.928 98.945 166.522 96.545 166.522 96.545C166.522 96.545 169.155 96.155 169.833 97.665L154.918 102.13Z" fill="#FFCB05"/>
<path opacity="0.2" d="M173.887 136.995L196.527 126.445L195.315 124.365L173.887 136.995Z" fill="black"/>
<g opacity="0.2">
<path opacity="0.2" d="M169.604 98.11C169.47 98.2543 169.316 98.3774 169.145 98.475C168.693 98.7585 168.214 98.9948 167.714 99.18C167.086 99.42 166.318 99.64 165.47 99.89C164.622 100.14 163.69 100.39 162.702 100.665C161.017 101.116 159.302 101.45 157.571 101.665C156.908 101.745 156.369 101.78 155.995 101.795C155.801 101.816 155.606 101.816 155.412 101.795C155.599 101.741 155.791 101.711 155.985 101.705C156.354 101.66 156.893 101.595 157.551 101.495C159.264 101.219 160.962 100.855 162.638 100.405L165.405 99.65C166.258 99.415 167.026 99.215 167.654 98.995C168.329 98.7595 168.982 98.4633 169.604 98.11Z" fill="black"/>
</g>
<g opacity="0.2">
<path opacity="0.2" d="M158.334 101.34C158.151 101.216 158.002 101.048 157.9 100.852C157.798 100.655 157.747 100.436 157.751 100.215C157.709 99.9979 157.722 99.7739 157.789 99.5634C157.856 99.3528 157.975 99.1625 158.135 99.01C158.056 99.4001 158.014 99.7969 158.01 100.195C158.085 100.585 158.194 100.968 158.334 101.34Z" fill="black"/>
</g>
<g opacity="0.2">
<path opacity="0.2" d="M161.81 100.935C161.393 100.654 161.082 100.24 160.927 99.7603C160.773 99.2807 160.783 98.7629 160.957 98.29C161.001 98.7575 161.074 99.2218 161.176 99.68C161.356 100.114 161.568 100.533 161.81 100.935Z" fill="black"/>
</g>
<g opacity="0.2">
<path opacity="0.2" d="M165.465 99.545C165.39 99.545 165.245 98.97 164.866 98.34C164.488 97.71 164.054 97.29 164.104 97.23C164.153 97.17 164.697 97.52 165.101 98.205C165.375 98.5952 165.504 99.0694 165.465 99.545Z" fill="black"/>
</g>
<path d="M197.908 140.22C197.908 140.22 244.17 149.315 245.142 154.44C246.114 159.565 244.145 204.855 244.145 204.855L230.78 205.125L229.329 165.67L173.887 151.135L197.908 140.22Z" fill="#FFCB05"/>
<path opacity="0.2" d="M197.908 140.22C197.908 140.22 244.17 149.315 245.142 154.44C246.114 159.565 244.145 204.855 244.145 204.855L230.78 205.125L229.329 165.67L173.887 151.135L197.908 140.22Z" fill="black"/>
<path d="M244.558 194.265L244.613 203.53C244.613 203.53 252.552 201.92 251.904 205.125C251.634 206.455 231.219 212.505 230.905 212.22L230.551 199.13L244.558 194.265Z" fill="#FFCB05"/>
<path opacity="0.4" d="M244.558 194.265L244.613 203.53C244.613 203.53 252.552 201.92 251.904 205.125C251.634 206.455 231.219 212.505 230.905 212.22L230.551 199.13L244.558 194.265Z" fill="black"/>
<path d="M251.43 205.54C251.315 205.242 251.139 204.973 250.912 204.75C250.685 204.526 250.412 204.354 250.114 204.245C249.687 204.09 249.235 204.017 248.782 204.03C246.125 204.262 243.505 204.811 240.978 205.665C238.444 206.516 236.006 207.634 233.707 209C232.83 209.525 232.132 210 231.653 210.295C231.416 210.482 231.164 210.649 230.9 210.795C231.117 210.591 231.348 210.404 231.593 210.235C232.057 209.89 232.74 209.41 233.613 208.86C235.902 207.447 238.346 206.306 240.898 205.46C243.446 204.592 246.097 204.062 248.782 203.885C249.258 203.881 249.729 203.973 250.168 204.155C250.5 204.294 250.797 204.506 251.036 204.775C251.187 204.942 251.304 205.138 251.38 205.35C251.407 205.41 251.424 205.474 251.43 205.54Z" fill="#263238"/>
<path d="M244.539 196.775C244.384 196.891 244.217 196.988 244.04 197.065C243.706 197.24 243.212 197.475 242.599 197.76C241.372 198.335 239.657 199.08 237.732 199.83C235.807 200.58 234.037 201.19 232.745 201.595C232.102 201.8 231.573 201.96 231.209 202.06C231.023 202.124 230.831 202.168 230.636 202.19C230.808 202.093 230.99 202.016 231.179 201.96L232.675 201.42C233.952 200.97 235.702 200.335 237.627 199.585C239.552 198.835 241.267 198.12 242.514 197.585L244.01 196.965C244.178 196.88 244.355 196.817 244.539 196.775Z" fill="#263238"/>
<path d="M236.171 202.06C236.171 202.06 236.171 201.975 236.296 201.89C236.377 201.835 236.47 201.799 236.568 201.785C236.666 201.771 236.765 201.779 236.859 201.81C236.996 201.85 237.119 201.928 237.213 202.035C237.316 202.163 237.375 202.321 237.383 202.485C237.386 202.668 237.339 202.848 237.248 203.005C237.156 203.163 237.024 203.293 236.864 203.381C236.704 203.468 236.523 203.51 236.341 203.502C236.16 203.494 235.983 203.436 235.832 203.335C235.7 203.234 235.605 203.091 235.563 202.93C235.534 202.792 235.544 202.648 235.592 202.515C235.621 202.42 235.67 202.333 235.737 202.259C235.803 202.186 235.885 202.128 235.976 202.09C236.106 202.05 236.186 202.09 236.181 202.09C236.176 202.09 236.111 202.12 236.021 202.185C235.891 202.274 235.799 202.41 235.767 202.565C235.737 202.67 235.741 202.782 235.777 202.885C235.814 202.988 235.882 203.077 235.971 203.14C236.086 203.215 236.22 203.258 236.357 203.263C236.494 203.268 236.63 203.236 236.75 203.17C236.87 203.103 236.971 203.006 237.04 202.887C237.109 202.768 237.145 202.633 237.143 202.495C237.145 202.386 237.112 202.28 237.051 202.19C236.989 202.1 236.901 202.032 236.799 201.995C236.653 201.937 236.491 201.937 236.345 201.995C236.241 202 236.191 202.07 236.171 202.06Z" fill="#263238"/>
<path d="M233.338 211.8C233.331 210.801 233.5 209.809 233.837 208.87C233.845 209.868 233.676 210.86 233.338 211.8Z" fill="#263238"/>
<path d="M235.368 211.215C235.362 210.58 235.442 209.948 235.607 209.335C235.688 208.703 235.856 208.085 236.106 207.5C236.11 208.136 236.029 208.77 235.867 209.385C235.783 210.015 235.615 210.63 235.368 211.215Z" fill="#263238"/>
<path d="M237.592 210.605C237.666 209.246 237.913 207.902 238.325 206.605C238.251 207.964 238.004 209.308 237.592 210.605Z" fill="#263238"/>
<path d="M240.125 209.84C240.2 208.392 240.446 206.959 240.858 205.57C240.784 207.017 240.538 208.451 240.125 209.84Z" fill="#263238"/>
<path d="M242.524 209.095C242.598 207.647 242.844 206.214 243.257 204.825C243.183 206.272 242.937 207.706 242.524 209.095Z" fill="#263238"/>
<path d="M245.137 208.135C245.133 207.477 245.214 206.822 245.376 206.185C245.46 205.534 245.627 204.897 245.875 204.29C245.881 204.946 245.801 205.6 245.635 206.235C245.555 206.888 245.387 207.527 245.137 208.135Z" fill="#263238"/>
<path d="M247.755 207.145C247.828 206.03 248.075 204.933 248.488 203.895C248.491 204.456 248.409 205.014 248.244 205.55C248.164 206.104 248 206.642 247.755 207.145Z" fill="#263238"/>
<path d="M208.475 204.215C208.58 204.405 206.949 205.49 204.835 206.645C202.72 207.8 200.925 208.575 200.845 208.385C200.766 208.195 202.376 207.11 204.491 205.955C206.605 204.8 208.375 204.025 208.475 204.215Z" fill="#263238"/>
<path d="M231.678 95.06V95.03C234.019 94.0638 236.306 92.9723 238.53 91.76C241.522 89.95 241.382 89.68 241.108 89.36C240.385 88.515 235.697 92.36 236.231 90.935C236.764 89.51 242.504 86.935 241.716 86.065C240.679 84.955 235.847 89.065 235.413 89.37C234.979 89.675 234.51 89.07 234.914 88.805C235.503 88.425 241.557 84.27 240.549 83.17C239.991 82.56 238.993 83.67 238.993 83.67C238.993 83.67 233.613 87.97 233.154 87.435C232.695 86.9 235.762 84.26 236.864 83.435C237.966 82.61 238.006 81.785 237.253 81.6C236.754 81.47 233.314 83.885 232.266 84.715C231.219 85.545 228.307 87.875 228.801 85.565C229.294 83.255 228.801 81.295 228.302 80.855C227.803 80.415 227.01 80.955 227.17 81.67C227.266 82.4615 227.251 83.2627 227.125 84.05C227.05 84.6884 226.866 85.3091 226.582 85.885C226.252 86.555 225.943 87.105 225.669 87.57C225.216 88.3061 225.069 89.1913 225.26 90.035C225.644 91.27 230.107 95.64 230.107 95.64L231.678 95.06Z" fill="#FFCB05"/>
<g opacity="0.7">
<path opacity="0.7" d="M231.678 95.06V95.03C234.019 94.0638 236.306 92.9723 238.53 91.76C241.522 89.95 241.382 89.68 241.108 89.36C240.385 88.515 235.697 92.36 236.231 90.935C236.764 89.51 242.504 86.935 241.716 86.065C240.679 84.955 235.847 89.065 235.413 89.37C234.979 89.675 234.51 89.07 234.914 88.805C235.503 88.425 241.557 84.27 240.549 83.17C239.991 82.56 238.993 83.67 238.993 83.67C238.993 83.67 233.613 87.97 233.154 87.435C232.695 86.9 235.762 84.26 236.864 83.435C237.966 82.61 238.006 81.785 237.253 81.6C236.754 81.47 233.314 83.885 232.266 84.715C231.219 85.545 228.307 87.875 228.801 85.565C229.294 83.255 228.801 81.295 228.302 80.855C227.803 80.415 227.01 80.955 227.17 81.67C227.266 82.4615 227.251 83.2627 227.125 84.05C227.05 84.6884 226.866 85.3091 226.582 85.885C226.252 86.555 225.943 87.105 225.669 87.57C225.216 88.3061 225.069 89.1913 225.26 90.035C225.644 91.27 230.107 95.64 230.107 95.64L231.678 95.06Z" fill="white"/>
</g>
<path d="M173.364 98.525C174.401 99.3 203.393 100.295 203.393 100.295L222.308 89.61L229.883 96.865C229.883 96.865 207.802 111.76 205.343 112.28C202.885 112.8 184.958 112.28 184.958 112.28L173.364 98.525Z" fill="#FFCB05"/>
<path d="M222.642 90.04L229.169 96.965C229.372 97.1825 229.646 97.3202 229.942 97.3532C230.237 97.3862 230.534 97.3124 230.78 97.145L230.825 97.115C230.976 97.0127 231.102 96.8788 231.196 96.7225C231.29 96.5662 231.348 96.3914 231.368 96.21C231.387 96.0287 231.367 95.8453 231.309 95.6726C231.25 95.4999 231.155 95.342 231.029 95.21L224.452 88.315C224.261 88.1117 224.006 87.9789 223.73 87.9381C223.455 87.8973 223.173 87.9508 222.931 88.09C222.766 88.1836 222.625 88.3136 222.517 88.4703C222.41 88.627 222.34 88.8062 222.312 88.9942C222.284 89.1822 222.299 89.3741 222.356 89.5553C222.413 89.7366 222.511 89.9023 222.642 90.04Z" fill="#FFCB05"/>
<path opacity="0.5" d="M222.642 90.04L229.169 96.965C229.372 97.1825 229.646 97.3202 229.942 97.3532C230.237 97.3862 230.534 97.3124 230.78 97.145L230.825 97.115C230.976 97.0127 231.102 96.8788 231.196 96.7225C231.29 96.5662 231.348 96.3914 231.368 96.21C231.387 96.0287 231.367 95.8453 231.309 95.6726C231.25 95.4999 231.155 95.342 231.029 95.21L224.452 88.315C224.261 88.1117 224.006 87.9789 223.73 87.9381C223.455 87.8973 223.173 87.9508 222.931 88.09C222.766 88.1836 222.625 88.3136 222.517 88.4703C222.41 88.627 222.34 88.8062 222.312 88.9942C222.284 89.1822 222.299 89.3741 222.356 89.5553C222.413 89.7366 222.511 89.9023 222.642 90.04Z" fill="white"/>
<path d="M205.403 112.265C205.24 112.199 205.087 112.11 204.949 112C204.577 111.713 204.233 111.392 203.922 111.04C202.875 109.876 202.173 108.443 201.893 106.901C201.613 105.359 201.766 103.769 202.336 102.31C202.504 101.871 202.713 101.45 202.96 101.05C203.041 100.896 203.145 100.756 203.269 100.635C203.314 100.635 202.89 101.27 202.511 102.375C202 103.811 201.875 105.356 202.147 106.855C202.419 108.355 203.079 109.757 204.062 110.92C204.83 111.805 205.448 112.225 205.403 112.265Z" fill="#263238"/>
<path d="M227.389 94.695C227.321 94.766 227.246 94.8296 227.165 94.885L226.497 95.385C225.913 95.82 225.06 96.44 224.003 97.195C221.884 98.695 218.917 100.745 215.591 102.91C212.265 105.075 209.198 106.97 206.944 108.3C205.827 108.97 204.914 109.5 204.281 109.855L203.548 110.26C203.465 110.313 203.376 110.357 203.284 110.39C203.355 110.321 203.436 110.262 203.523 110.215L204.231 109.77L206.849 108.145C209.063 106.775 212.11 104.865 215.436 102.7C218.762 100.535 221.759 98.5 223.899 97.05L226.447 95.305L227.14 94.84C227.216 94.7802 227.3 94.7314 227.389 94.695Z" fill="#263238"/>
<path d="M203.304 110.065C203.304 110.135 199.474 110.065 194.757 109.855C190.039 109.645 186.214 109.46 186.214 109.39C186.214 109.32 190.044 109.39 194.766 109.595C199.489 109.8 203.309 110 203.304 110.065Z" fill="#263238"/>
<g opacity="0.2">
<path opacity="0.2" d="M190.159 112.405C189.002 109.176 187.362 106.141 185.297 103.405C183.372 100.805 178.55 98.76 175.323 98.905C179.931 100.99 186.015 107.245 188.224 112.445L190.159 112.405Z" fill="black"/>
</g>
<path d="M149.044 105.55C148.859 104.64 130.892 119.24 123.343 125.42C122.316 126.26 121.489 127.319 120.922 128.519C120.354 129.72 120.06 131.032 120.061 132.36C120.061 133.537 120.292 134.702 120.741 135.789C121.191 136.876 121.849 137.864 122.679 138.696C123.508 139.528 124.493 140.188 125.578 140.638C126.662 141.088 127.824 141.32 128.997 141.32H150.884V130.19H136.632L154.928 118.105L149.044 105.55Z" fill="#FFCB05"/>
<path d="M153.686 140.085V140.05C156.188 140.435 158.708 140.682 161.236 140.79C164.727 140.79 164.752 140.48 164.682 140.07C164.497 138.97 158.513 139.825 159.695 138.895C160.877 137.965 167.135 138.695 166.896 137.555C166.582 136.055 160.334 137.08 159.795 137.13C159.256 137.18 159.177 136.4 159.66 136.385C160.358 136.385 167.679 135.935 167.385 134.47C167.22 133.66 165.794 134.09 165.794 134.09C165.794 134.09 158.972 134.995 158.857 134.3C158.743 133.605 162.727 132.925 164.088 132.8C165.45 132.675 165.919 131.98 165.365 131.43C164.991 131.055 160.812 131.35 159.471 131.51C158.129 131.67 154.454 132.175 156.065 130.45C157.676 128.725 158.264 126.79 158.06 126.155C157.999 126.013 157.896 125.894 157.764 125.814C157.632 125.735 157.478 125.699 157.325 125.711C157.172 125.724 157.026 125.785 156.909 125.885C156.792 125.985 156.71 126.12 156.673 126.27C156.345 126.992 155.918 127.665 155.407 128.27C155.015 128.778 154.54 129.214 154 129.56C153.372 129.965 152.824 130.28 152.35 130.535C151.585 130.933 151.005 131.615 150.734 132.435C150.425 133.695 152.006 139.74 152.006 139.74L153.686 140.085Z" fill="#FFCB05"/>
<g opacity="0.7">
<path opacity="0.7" d="M153.686 140.085V140.05C156.188 140.435 158.708 140.682 161.236 140.79C164.727 140.79 164.752 140.48 164.682 140.07C164.497 138.97 158.513 139.825 159.695 138.895C160.877 137.965 167.135 138.695 166.896 137.555C166.582 136.055 160.334 137.08 159.795 137.13C159.256 137.18 159.177 136.4 159.66 136.385C160.358 136.385 167.679 135.935 167.385 134.47C167.22 133.66 165.794 134.09 165.794 134.09C165.794 134.09 158.972 134.995 158.857 134.3C158.743 133.605 162.727 132.925 164.088 132.8C165.45 132.675 165.919 131.98 165.365 131.43C164.991 131.055 160.812 131.35 159.471 131.51C158.129 131.67 154.454 132.175 156.065 130.45C157.676 128.725 158.264 126.79 158.06 126.155C157.999 126.013 157.896 125.894 157.764 125.814C157.632 125.735 157.478 125.699 157.325 125.711C157.172 125.724 157.026 125.785 156.909 125.885C156.792 125.985 156.71 126.12 156.673 126.27C156.345 126.992 155.918 127.665 155.407 128.27C155.015 128.778 154.54 129.214 154 129.56C153.372 129.965 152.824 130.28 152.35 130.535C151.585 130.933 151.005 131.615 150.734 132.435C150.425 133.695 152.006 139.74 152.006 139.74L153.686 140.085Z" fill="white"/>
</g>
<path d="M120.774 128.59C120.923 128.406 121.09 128.239 121.273 128.09C121.76 127.655 122.289 127.272 122.854 126.945C124.735 125.843 126.915 125.367 129.082 125.585C131.244 125.839 133.272 126.762 134.887 128.225C135.372 128.662 135.813 129.146 136.203 129.67C136.356 129.855 136.485 130.058 136.587 130.275C136.027 129.595 135.419 128.957 134.767 128.365C133.154 126.981 131.166 126.111 129.057 125.865C126.939 125.655 124.807 126.094 122.944 127.125C122.186 127.56 121.461 128.05 120.774 128.59Z" fill="#263238"/>
<path d="M152.36 114.9C152.4 114.955 148.371 117.9 143.339 121.53C138.308 125.16 134.213 128.005 134.169 127.945C134.124 127.885 138.158 124.945 143.189 121.315C148.221 117.685 152.315 114.84 152.36 114.9Z" fill="#263238"/>
<path d="M149.123 136.095C149.033 136.123 148.939 136.14 148.844 136.145L148.031 136.23C147.328 136.305 146.306 136.395 145.039 136.495C142.516 136.69 139.015 136.895 135.151 136.995C131.286 137.095 127.781 137.105 125.247 137.06C123.981 137.06 122.953 137.005 122.255 136.975L121.442 136.935C121.347 136.935 121.251 136.923 121.158 136.9C121.253 136.888 121.348 136.888 121.442 136.9H125.257C127.79 136.9 131.291 136.9 135.156 136.76C139.02 136.62 142.511 136.47 145.039 136.32L148.031 136.14L148.849 136.1C148.94 136.087 149.032 136.086 149.123 136.095Z" fill="#263238"/>
<g opacity="0.2">
<path opacity="0.2" d="M138.572 128.955C138.502 127.18 137.076 125.64 135.425 125.06C133.775 124.48 131.521 125.005 129.875 125.66C132.498 126.425 135.186 127.905 136.652 130.22L138.572 128.955Z" fill="black"/>
</g>
<path d="M149.228 130.565L149.473 140.09C149.48 140.387 149.593 140.671 149.79 140.893C149.987 141.114 150.256 141.259 150.55 141.3H150.605C150.785 141.325 150.969 141.31 151.144 141.256C151.318 141.202 151.479 141.111 151.615 140.989C151.75 140.867 151.858 140.716 151.93 140.548C152.002 140.38 152.036 140.198 152.031 140.015L151.732 130.48C151.722 130.199 151.618 129.929 151.437 129.715C151.256 129.5 151.009 129.352 150.734 129.295C150.549 129.256 150.357 129.26 150.173 129.307C149.989 129.353 149.819 129.441 149.674 129.563C149.529 129.686 149.413 129.839 149.336 130.013C149.259 130.186 149.222 130.375 149.228 130.565Z" fill="#FFCB05"/>
<path opacity="0.5" d="M149.228 130.565L149.473 140.09C149.48 140.387 149.593 140.671 149.79 140.893C149.987 141.114 150.256 141.259 150.55 141.3H150.605C150.785 141.325 150.969 141.31 151.144 141.256C151.318 141.202 151.479 141.111 151.615 140.989C151.75 140.867 151.858 140.716 151.93 140.548C152.002 140.38 152.036 140.198 152.031 140.015L151.732 130.48C151.722 130.199 151.618 129.929 151.437 129.715C151.256 129.5 151.009 129.352 150.734 129.295C150.549 129.256 150.357 129.26 150.173 129.307C149.989 129.353 149.819 129.441 149.674 129.563C149.529 129.686 149.413 129.839 149.336 130.013C149.259 130.186 149.222 130.375 149.228 130.565Z" fill="white"/>
<path d="M153.457 119.4C154.365 118.755 155.168 117.972 155.836 117.08C156.531 116.097 157.038 114.993 157.332 113.825C157.506 113.137 157.611 112.434 157.646 111.725C157.675 110.964 157.619 110.203 157.476 109.455C157.187 107.925 156.479 106.515 155.322 105.785C154.29 105.169 153.093 104.89 151.896 104.985C151.085 105.041 150.28 105.161 149.488 105.345C149.196 105.417 148.899 105.469 148.6 105.5C148.6 105.5 148.67 105.465 148.815 105.415C148.959 105.365 149.179 105.305 149.458 105.23C150.249 105.002 151.061 104.851 151.881 104.78C153.123 104.653 154.373 104.928 155.447 105.565C156.068 105.972 156.582 106.525 156.943 107.175C157.327 107.861 157.595 108.606 157.736 109.38C157.882 110.149 157.939 110.933 157.905 111.715C157.866 112.443 157.754 113.165 157.571 113.87C157.252 115.061 156.71 116.181 155.975 117.17C155.481 117.835 154.889 118.421 154.22 118.91C154.039 119.043 153.849 119.164 153.652 119.27C153.593 119.322 153.527 119.366 153.457 119.4Z" fill="#263238"/>
<path d="M236.26 136.78L218.912 156.03L209.218 149.175L225.175 130.08L183.058 152.395C181.1 153.409 178.834 153.647 176.709 153.062C174.584 152.478 172.756 151.113 171.588 149.24C170.933 148.189 170.506 147.011 170.336 145.783C170.166 144.555 170.257 143.305 170.602 142.115C170.947 140.925 171.539 139.821 172.339 138.875C173.139 137.93 174.128 137.165 175.244 136.63L220.767 114.79C223.973 113.249 227.613 112.869 231.067 113.714C234.521 114.559 237.577 116.577 239.716 119.425C244.015 125.155 241.746 131.185 236.26 136.78Z" fill="#FFCB05"/>
<path d="M229.424 124.79C229.424 124.79 229.424 124.765 229.374 124.705L229.244 124.44C229.092 124.096 228.901 123.771 228.676 123.47C228.33 122.974 227.861 122.578 227.315 122.32C226.571 121.997 225.736 121.958 224.966 122.21L201.329 134.615L180.929 145.215L174.735 148.405L173.035 149.255L172.591 149.47L172.436 149.535C172.436 149.535 172.481 149.5 172.576 149.445L173.01 149.205L174.675 148.31L180.834 145.05L201.199 134.375L224.886 122.075C225.692 121.817 226.565 121.868 227.334 122.22C227.892 122.492 228.367 122.908 228.711 123.425C228.93 123.737 229.114 124.072 229.259 124.425L229.369 124.695C229.419 124.76 229.429 124.79 229.424 124.79Z" fill="#263238"/>
<path d="M231.518 122.205C231.573 122.25 230.082 124.205 228.187 126.525C226.292 128.845 224.696 130.735 224.657 130.69C224.617 130.645 226.093 128.69 227.988 126.365C229.094 124.92 230.273 123.532 231.518 122.205Z" fill="#263238"/>
<path d="M227.683 146.31L218.448 156.96C218.448 156.96 223.719 163.2 222.841 163.935C221.964 164.67 207.343 151.595 207.343 151.595L216.917 139.325L227.683 146.31Z" fill="#FFCB05"/>
<path opacity="0.4" d="M227.683 146.31L218.448 156.96C218.448 156.96 223.719 163.2 222.841 163.935C221.964 164.67 207.343 151.595 207.343 151.595L216.917 139.325L227.683 146.31Z" fill="black"/>
<path d="M225.355 149.18C225.32 149.245 222.727 147.875 219.56 146.12C216.394 144.365 213.855 142.895 213.89 142.835C213.925 142.775 216.518 144.14 219.685 145.895C222.851 147.65 225.395 149.12 225.355 149.18Z" fill="#263238"/>
<path d="M213.177 149.43C213.177 149.43 213.128 149.52 213.058 149.68C212.967 149.902 212.945 150.145 212.993 150.38C213.021 150.55 213.087 150.711 213.185 150.852C213.284 150.993 213.412 151.11 213.561 151.195C213.75 151.268 213.956 151.287 214.155 151.249C214.354 151.21 214.538 151.117 214.687 150.979C214.835 150.841 214.942 150.664 214.996 150.468C215.049 150.272 215.046 150.065 214.988 149.87C214.914 149.715 214.808 149.579 214.676 149.47C214.544 149.361 214.39 149.282 214.225 149.24C213.995 149.173 213.751 149.173 213.521 149.24C213.357 149.295 213.277 149.36 213.262 149.34C213.247 149.32 213.312 149.24 213.482 149.15C213.723 149.026 214 148.991 214.264 149.05C214.466 149.088 214.656 149.172 214.82 149.296C214.983 149.42 215.116 149.581 215.207 149.765C215.291 150.006 215.302 150.266 215.241 150.514C215.179 150.761 215.047 150.985 214.86 151.158C214.673 151.332 214.439 151.446 214.188 151.488C213.937 151.53 213.68 151.498 213.447 151.395C213.271 151.289 213.122 151.144 213.012 150.97C212.902 150.797 212.834 150.6 212.813 150.395C212.774 150.125 212.828 149.849 212.968 149.615C213.073 149.47 213.172 149.42 213.177 149.43Z" fill="#263238"/>
<path opacity="0.2" d="M212.888 136.63L224.861 130.29L231.059 122.765L212.888 136.63Z" fill="black"/>
<path d="M231.81 70.6186C238.757 70.4557 244.257 64.6772 244.094 57.7121C243.932 50.7469 238.169 45.2326 231.222 45.3955C224.275 45.5584 218.776 51.3369 218.938 58.3021C219.101 65.2672 224.864 70.7815 231.81 70.6186Z" fill="#455A64"/>
<path d="M235.617 53.18C235.627 52.7735 235.757 52.3792 235.991 52.0468C236.225 51.7145 236.551 51.4591 236.93 51.313C237.308 51.1669 237.721 51.1366 238.117 51.226C238.512 51.3154 238.873 51.5205 239.152 51.8152C239.431 52.11 239.617 52.4812 239.686 52.8819C239.755 53.2826 239.704 53.6948 239.539 54.0663C239.374 54.4377 239.103 54.7518 238.76 54.9688C238.417 55.1857 238.017 55.2958 237.612 55.285C237.069 55.2706 236.554 55.0409 236.18 54.6462C235.806 54.2515 235.604 53.7242 235.617 53.18Z" fill="#263238"/>
<path d="M239.716 58C239.721 57.7625 239.797 57.5319 239.932 57.3373C240.068 57.1427 240.259 56.9929 240.479 56.9069C240.7 56.8208 240.942 56.8024 241.173 56.854C241.404 56.9056 241.615 57.0248 241.778 57.1966C241.942 57.3683 242.051 57.5849 242.092 57.8189C242.133 58.0529 242.103 58.2937 242.007 58.5109C241.912 58.7281 241.754 58.9119 241.554 59.0391C241.353 59.1662 241.12 59.2309 240.883 59.225C240.726 59.2218 240.572 59.1875 240.428 59.1241C240.284 59.0607 240.154 58.9695 240.046 58.8556C239.938 58.7418 239.853 58.6076 239.796 58.4608C239.74 58.3139 239.712 58.1574 239.716 58Z" fill="#263238"/>
<path d="M238.116 61.655C238.225 61.6666 238.325 61.7183 238.399 61.8C238.472 61.8816 238.512 61.9876 238.512 62.0975C238.512 62.2074 238.472 62.3133 238.399 62.395C238.325 62.4767 238.225 62.5284 238.116 62.54C238.007 62.5284 237.906 62.4767 237.833 62.395C237.759 62.3133 237.719 62.2074 237.719 62.0975C237.719 61.9876 237.759 61.8816 237.833 61.8C237.906 61.7183 238.007 61.6666 238.116 61.655Z" fill="#263238"/>
<path d="M285.324 84.64L285.599 85.14C285.908 85.7052 286.371 86.17 286.935 86.48L287.434 86.755L286.935 87.035C286.371 87.345 285.908 87.8099 285.599 88.375L285.324 88.875L285.05 88.375C284.741 87.8099 284.277 87.345 283.714 87.035L283.215 86.755L283.714 86.48C284.277 86.17 284.741 85.7052 285.05 85.14L285.324 84.64Z" fill="#455A64"/>
<path d="M67.7263 159.435L68.0056 159.935C68.3134 160.501 68.7773 160.966 69.342 161.275L69.8407 161.55L69.342 161.83C68.7773 162.139 68.3134 162.604 68.0056 163.17L67.7263 163.67L67.452 163.17C67.1429 162.605 66.6792 162.14 66.1156 161.83L65.6169 161.55L66.1156 161.275C66.6792 160.965 67.1429 160.5 67.452 159.935L67.7263 159.435Z" fill="#455A64"/>
<path d="M127.387 158.255L127.526 158.505C127.681 158.787 127.913 159.02 128.195 159.175L128.449 159.315L128.195 159.45C127.913 159.607 127.681 159.841 127.526 160.125L127.387 160.375L127.252 160.125C127.098 159.841 126.866 159.607 126.584 159.45L126.33 159.315L126.584 159.175C126.866 159.02 127.097 158.787 127.252 158.505L127.387 158.255Z" fill="#455A64"/>
<path d="M264.67 157.315L264.809 157.57C264.964 157.853 265.196 158.085 265.478 158.24L265.727 158.375L265.478 158.515C265.195 158.669 264.962 158.901 264.809 159.185L264.67 159.435L264.535 159.185C264.38 158.903 264.149 158.67 263.867 158.515L263.613 158.375L263.867 158.24C264.148 158.084 264.379 157.852 264.535 157.57L264.67 157.315Z" fill="#455A64"/>
<path d="M200.781 82.055L200.915 82.305C201.07 82.5875 201.302 82.8199 201.584 82.975L201.838 83.115L201.584 83.25C201.303 83.4064 201.071 83.6385 200.915 83.92L200.781 84.175L200.641 83.92C200.482 83.6372 200.247 83.4049 199.963 83.25L199.708 83.115L199.963 83C200.245 82.8449 200.476 82.6125 200.631 82.33L200.781 82.055Z" fill="#455A64"/>
<path d="M126.584 72.465L126.718 72.715C126.873 72.999 127.105 73.2331 127.387 73.39L127.641 73.525L127.387 73.665C127.105 73.8201 126.873 74.0525 126.718 74.335L126.584 74.585L126.444 74.335C126.291 74.0513 126.059 73.8185 125.776 73.665L125.527 73.525L125.776 73.39C126.059 73.2345 126.291 73 126.444 72.715L126.584 72.465Z" fill="#455A64"/>
<path d="M177.293 38.95L177.792 39.82C178.325 40.7971 179.126 41.6005 180.101 42.135L180.969 42.635L180.101 43.135C179.126 43.6695 178.325 44.4729 177.792 45.45L177.293 46.32L176.795 45.45C176.281 44.4606 175.496 43.6398 174.531 43.085L173.663 42.585L174.531 42.085C175.505 41.5505 176.307 40.7471 176.84 39.77L177.293 38.95Z" fill="#455A64"/>
<path d="M125.796 194.71L126.27 195.58C126.801 196.558 127.603 197.362 128.579 197.895L129.446 198.395L128.579 198.87C127.604 199.404 126.803 200.208 126.27 201.185L125.796 202.055L125.297 201.185C124.764 200.208 123.963 199.404 122.989 198.87L122.121 198.395L122.989 197.895C123.964 197.362 124.766 196.558 125.297 195.58L125.796 194.71Z" fill="#455A64"/>
</svg>
